<svg width="22" height="22" viewBox="0 0 22 22" fill="none" xmlns="http://www.w3.org/2000/svg">
<path d="M21.1904 18.8476L21.1904 2.34841C21.1837 2.04129 21.1165 1.73851 20.9925 1.45746C20.7558 0.890744 20.3052 0.440188 19.7385 0.203519C19.4575 0.0795166 19.1547 0.0122335 18.8476 0.00552983L2.34841 0.00553004C2.04074 0.00552964 1.73608 0.0661302 1.45183 0.183871C1.16758 0.301612 0.909297 0.474187 0.69174 0.691744C0.252365 1.13112 0.00552677 1.72704 0.00552638 2.34841C0.00552595 2.96978 0.252366 3.5657 0.691742 4.00508C1.13112 4.44445 1.72704 4.69129 2.34841 4.69129L13.2214 4.67479L0.698492 17.1977C0.260907 17.6352 0.0150735 18.2287 0.0150742 18.8476C0.0150735 19.4664 0.260907 20.0599 0.698492 20.4975C1.13608 20.9351 1.72957 21.1809 2.34841 21.1809C2.96725 21.1809 3.56074 20.9351 3.99832 20.4975L16.5212 7.97462L16.5047 18.8476C16.5034 19.1556 16.5632 19.4608 16.6805 19.7456C16.7977 20.0305 16.9703 20.2892 17.1881 20.507C17.4059 20.7249 17.6647 20.8974 17.9495 21.0147C18.2343 21.132 18.5395 21.1917 18.8476 21.1904C19.1556 21.1917 19.4608 21.132 19.7456 21.0147C20.0305 20.8974 20.2892 20.7249 20.507 20.507C20.7249 20.2892 20.8974 20.0305 21.0147 19.7456C21.132 19.4608 21.1917 19.1556 21.1904 18.8476Z" fill="white"/>
</svg>
