<svg width="463" height="560" viewBox="0 0 463 560" fill="none" xmlns="http://www.w3.org/2000/svg">
<rect width="463" height="560" fill="#282828"/>
<g clip-path="url(#clip0_368_173)">
<path d="M110 193.266C110 190.394 111.195 187.64 113.323 185.609C115.45 183.578 118.335 182.438 121.344 182.438H185.67C204.229 182.438 220.715 190.956 231.045 204.108C236.323 197.367 243.179 191.897 251.065 188.135C258.951 184.372 267.649 182.421 276.466 182.438H340.671C343.68 182.438 346.565 183.578 348.693 185.609C350.82 187.64 352.015 190.394 352.015 193.266V344.859C352.015 347.731 350.82 350.485 348.693 352.516C346.565 354.547 343.68 355.688 340.671 355.688H272.503C268.034 355.688 263.609 356.528 259.48 358.16C255.351 359.793 251.599 362.185 248.439 365.202L239.031 374.168C236.904 376.195 234.021 377.334 231.015 377.334C228.009 377.334 225.126 376.195 222.999 374.168L213.591 365.202C210.431 362.185 206.679 359.793 202.551 358.16C198.422 356.528 193.996 355.688 189.527 355.688H121.344C118.335 355.688 115.45 354.547 113.323 352.516C111.195 350.485 110 347.731 110 344.859V193.266ZM219.671 342.318L219.732 269.077L219.702 236.549C219.694 227.939 216.105 219.684 209.723 213.598C203.342 207.512 194.691 204.094 185.67 204.094H132.688V334.031H189.512C200.182 334.031 210.635 336.903 219.671 342.318ZM242.419 236.578L242.359 342.29C251.39 336.89 261.832 334.028 272.488 334.031H329.312V204.094H276.451C267.425 204.094 258.769 207.516 252.387 213.608C246.005 219.7 242.419 227.963 242.419 236.578Z" fill="white" fill-opacity="0.07"/>
</g>
<defs>
<clipPath id="clip0_368_173">
<rect width="242" height="231" fill="white" transform="translate(110 168)"/>
</clipPath>
</defs>
</svg>
