<svg xmlns="http://www.w3.org/2000/svg" viewBox="0 0 172.48 89.4"><defs><style>.cls-1{fill:#231f20;}.cls-2{fill:#6056a5;}</style></defs><g id="Layer_2" data-name="Layer 2"><g id="Layer_1-2" data-name="Layer 1"><path class="cls-1" d="M45.15,44.46,74.17,81A4.09,4.09,0,0,1,71,87.6H50.51A4.1,4.1,0,0,1,47.25,86l-21.93-29V87.6H0V1.8H25.32V36.12L46.91,3.62a4.06,4.06,0,0,1,3.4-1.82H68.94a4.09,4.09,0,0,1,3.27,6.53Z"/><path class="cls-1" d="M109.3,0a56.17,56.17,0,0,1,15.84,2.05A34.34,34.34,0,0,1,137,8a25.59,25.59,0,0,1,7.42,9.45l.06.11a8.85,8.85,0,0,1-8.05,12.52h-10.6a2.73,2.73,0,0,1-2.45-1.53l-1.43-2.9a9.31,9.31,0,0,0-2.8-3.33,13.46,13.46,0,0,0-4.41-2.09,20.86,20.86,0,0,0-5.82-.74,23.87,23.87,0,0,0-5,.49,14.56,14.56,0,0,0-4,1.44,8.2,8.2,0,0,0-2.7,2.3,5,5,0,0,0-1,3.06,4.77,4.77,0,0,0,.94,3.09,6.82,6.82,0,0,0,2.94,1.93,27.86,27.86,0,0,0,5.1,1.31q3.1.54,7.43,1.17l2.55.36,5.55.84q2.88.45,5.8,1.12t5.78,1.63a33,33,0,0,1,5.41,2.32,27.27,27.27,0,0,1,4.74,3.22,19.33,19.33,0,0,1,3.77,4.32,21.06,21.06,0,0,1,2.49,5.63,26,26,0,0,1,.9,7.14A26.32,26.32,0,0,1,146.9,73a24.65,24.65,0,0,1-7.84,9,37.46,37.46,0,0,1-12.53,5.55,67.13,67.13,0,0,1-16.72,1.91,64.35,64.35,0,0,1-17.4-2.12,35.64,35.64,0,0,1-12.56-6.09,25.39,25.39,0,0,1-7.62-9.7L72,71a9,9,0,0,1,8.3-12.44H91.26a2.75,2.75,0,0,1,2.68,2.24,9.57,9.57,0,0,0,.88,2.56A10.07,10.07,0,0,0,98,66.93a15.36,15.36,0,0,0,5,2.24,27.49,27.49,0,0,0,6.72.76,29,29,0,0,0,5.86-.55,17.76,17.76,0,0,0,4.64-1.6,8.74,8.74,0,0,0,3-2.53,5.61,5.61,0,0,0,1.1-3.39,5.19,5.19,0,0,0-1-3.29,6.87,6.87,0,0,0-3-2,25.53,25.53,0,0,0-5.12-1.28q-3.11-.5-7.33-1l-3.51-.48q-2.55-.33-5.34-.74c-1.86-.27-3.74-.6-5.63-1s-3.76-.9-5.61-1.48a32.36,32.36,0,0,1-5.28-2.18A26.55,26.55,0,0,1,78,45.27a18.21,18.21,0,0,1-3.7-4.16,19.89,19.89,0,0,1-2.45-5.46,25.21,25.21,0,0,1-.88-7,27.27,27.27,0,0,1,1.29-8.55A24.47,24.47,0,0,1,75.89,13,26.07,26.07,0,0,1,81.7,7.41a35,35,0,0,1,7.68-4.08A47.16,47.16,0,0,1,98.66.84,64.55,64.55,0,0,1,109.3,0Z"/><path class="cls-2" d="M172.48,87.6H150.7V79.07a13.91,13.91,0,0,1,13.91-13.91h7.87Z"/></g></g></svg>